<mxfile host="app.diagrams.net" modified="2023-10-05T09:47:30.679Z" agent="Mozilla/5.0 (Windows NT 10.0; Win64; x64) AppleWebKit/537.36 (KHTML, like Gecko) Chrome/117.0.0.0 Safari/537.36" etag="1AdDv8vCpxSZ881VR8VY" version="22.0.2" type="github">
  <diagram name="Página-1" id="_kHth-g6oyU-RWGS6nZT">
    <mxGraphModel dx="3027" dy="2379" grid="1" gridSize="10" guides="1" tooltips="1" connect="1" arrows="1" fold="1" page="1" pageScale="1" pageWidth="827" pageHeight="1169" math="0" shadow="0">
      <root>
        <mxCell id="0" />
        <mxCell id="1" parent="0" />
        <mxCell id="Kqf8Ho2SJKoaRGqRsECI-1" value="Curso" style="rounded=1;whiteSpace=wrap;html=1;" vertex="1" parent="1">
          <mxGeometry x="-770" y="-1120" width="120" height="60" as="geometry" />
        </mxCell>
        <mxCell id="Kqf8Ho2SJKoaRGqRsECI-2" value="Alumno" style="rounded=1;whiteSpace=wrap;html=1;" vertex="1" parent="1">
          <mxGeometry x="-770" y="-1040" width="120" height="60" as="geometry" />
        </mxCell>
        <mxCell id="Kqf8Ho2SJKoaRGqRsECI-3" value="Profesor" style="rounded=1;whiteSpace=wrap;html=1;" vertex="1" parent="1">
          <mxGeometry x="-770" y="-960" width="120" height="60" as="geometry" />
        </mxCell>
        <mxCell id="Kqf8Ho2SJKoaRGqRsECI-4" value="Materia" style="rounded=1;whiteSpace=wrap;html=1;" vertex="1" parent="1">
          <mxGeometry x="-770" y="-880" width="120" height="60" as="geometry" />
        </mxCell>
        <mxCell id="Kqf8Ho2SJKoaRGqRsECI-5" value="Aula" style="rounded=1;whiteSpace=wrap;html=1;" vertex="1" parent="1">
          <mxGeometry x="-630" y="-960" width="120" height="60" as="geometry" />
        </mxCell>
        <mxCell id="Kqf8Ho2SJKoaRGqRsECI-6" value="Actividades extracurriculares" style="rounded=1;whiteSpace=wrap;html=1;" vertex="1" parent="1">
          <mxGeometry x="-630" y="-880" width="120" height="60" as="geometry" />
        </mxCell>
        <mxCell id="Kqf8Ho2SJKoaRGqRsECI-8" value="Calificaciones" style="rounded=1;whiteSpace=wrap;html=1;" vertex="1" parent="1">
          <mxGeometry x="-630" y="-1120" width="120" height="60" as="geometry" />
        </mxCell>
        <mxCell id="Kqf8Ho2SJKoaRGqRsECI-9" value="Asistencias" style="rounded=1;whiteSpace=wrap;html=1;" vertex="1" parent="1">
          <mxGeometry x="-630" y="-1040" width="120" height="60" as="geometry" />
        </mxCell>
        <mxCell id="Kqf8Ho2SJKoaRGqRsECI-10" value="Tiene" style="rhombus;whiteSpace=wrap;html=1;" vertex="1" parent="1">
          <mxGeometry x="-460" y="-1120" width="80" height="80" as="geometry" />
        </mxCell>
        <mxCell id="Kqf8Ho2SJKoaRGqRsECI-11" value="Está&lt;br&gt;matriculado" style="rhombus;whiteSpace=wrap;html=1;" vertex="1" parent="1">
          <mxGeometry x="-460" y="-1030" width="80" height="80" as="geometry" />
        </mxCell>
        <mxCell id="Kqf8Ho2SJKoaRGqRsECI-12" value="Se lleva a cabo" style="rhombus;whiteSpace=wrap;html=1;" vertex="1" parent="1">
          <mxGeometry x="-370" y="-1030" width="80" height="80" as="geometry" />
        </mxCell>
        <mxCell id="Kqf8Ho2SJKoaRGqRsECI-13" value="Enseña" style="rhombus;whiteSpace=wrap;html=1;" vertex="1" parent="1">
          <mxGeometry x="-370" y="-1120" width="80" height="80" as="geometry" />
        </mxCell>
        <mxCell id="Kqf8Ho2SJKoaRGqRsECI-14" value="Curso" style="rounded=1;whiteSpace=wrap;html=1;" vertex="1" parent="1">
          <mxGeometry x="320" y="-520" width="120" height="60" as="geometry" />
        </mxCell>
        <mxCell id="Kqf8Ho2SJKoaRGqRsECI-15" value="Profesor" style="rounded=1;whiteSpace=wrap;html=1;" vertex="1" parent="1">
          <mxGeometry x="320" y="-740" width="120" height="60" as="geometry" />
        </mxCell>
        <mxCell id="Kqf8Ho2SJKoaRGqRsECI-16" value="Enseña" style="rhombus;whiteSpace=wrap;html=1;" vertex="1" parent="1">
          <mxGeometry x="340" y="-640" width="80" height="80" as="geometry" />
        </mxCell>
        <mxCell id="Kqf8Ho2SJKoaRGqRsECI-17" value="" style="endArrow=none;html=1;rounded=0;" edge="1" parent="1" source="Kqf8Ho2SJKoaRGqRsECI-16">
          <mxGeometry width="50" height="50" relative="1" as="geometry">
            <mxPoint x="330" y="-630" as="sourcePoint" />
            <mxPoint x="380" y="-680" as="targetPoint" />
          </mxGeometry>
        </mxCell>
        <mxCell id="Kqf8Ho2SJKoaRGqRsECI-18" value="" style="endArrow=none;html=1;rounded=0;" edge="1" parent="1" source="Kqf8Ho2SJKoaRGqRsECI-14">
          <mxGeometry width="50" height="50" relative="1" as="geometry">
            <mxPoint x="330" y="-510" as="sourcePoint" />
            <mxPoint x="380" y="-560" as="targetPoint" />
          </mxGeometry>
        </mxCell>
        <mxCell id="Kqf8Ho2SJKoaRGqRsECI-19" value="Alumno" style="rounded=1;whiteSpace=wrap;html=1;" vertex="1" parent="1">
          <mxGeometry x="40" y="-520" width="120" height="60" as="geometry" />
        </mxCell>
        <mxCell id="Kqf8Ho2SJKoaRGqRsECI-20" value="Está&lt;br&gt;matriculado" style="rhombus;whiteSpace=wrap;html=1;" vertex="1" parent="1">
          <mxGeometry x="200" y="-530" width="80" height="80" as="geometry" />
        </mxCell>
        <mxCell id="Kqf8Ho2SJKoaRGqRsECI-21" value="" style="endArrow=none;html=1;rounded=0;" edge="1" parent="1" source="Kqf8Ho2SJKoaRGqRsECI-19" target="Kqf8Ho2SJKoaRGqRsECI-20">
          <mxGeometry width="50" height="50" relative="1" as="geometry">
            <mxPoint x="165" y="-490" as="sourcePoint" />
            <mxPoint x="215" y="-540" as="targetPoint" />
          </mxGeometry>
        </mxCell>
        <mxCell id="Kqf8Ho2SJKoaRGqRsECI-22" value="" style="endArrow=none;html=1;rounded=0;" edge="1" parent="1">
          <mxGeometry width="50" height="50" relative="1" as="geometry">
            <mxPoint x="280" y="-490" as="sourcePoint" />
            <mxPoint x="320" y="-490" as="targetPoint" />
          </mxGeometry>
        </mxCell>
        <mxCell id="Kqf8Ho2SJKoaRGqRsECI-23" value="Tiene" style="rhombus;whiteSpace=wrap;html=1;" vertex="1" parent="1">
          <mxGeometry x="480" y="-530" width="80" height="80" as="geometry" />
        </mxCell>
        <mxCell id="Kqf8Ho2SJKoaRGqRsECI-24" value="Materia" style="rounded=1;whiteSpace=wrap;html=1;" vertex="1" parent="1">
          <mxGeometry x="600" y="-520" width="120" height="60" as="geometry" />
        </mxCell>
        <mxCell id="Kqf8Ho2SJKoaRGqRsECI-25" value="" style="endArrow=none;html=1;rounded=0;" edge="1" parent="1" target="Kqf8Ho2SJKoaRGqRsECI-23">
          <mxGeometry width="50" height="50" relative="1" as="geometry">
            <mxPoint x="440" y="-490" as="sourcePoint" />
            <mxPoint x="490" y="-540" as="targetPoint" />
          </mxGeometry>
        </mxCell>
        <mxCell id="Kqf8Ho2SJKoaRGqRsECI-26" value="" style="endArrow=none;html=1;rounded=0;entryX=0;entryY=0.5;entryDx=0;entryDy=0;" edge="1" parent="1" target="Kqf8Ho2SJKoaRGqRsECI-24">
          <mxGeometry width="50" height="50" relative="1" as="geometry">
            <mxPoint x="560" y="-490" as="sourcePoint" />
            <mxPoint x="610" y="-540" as="targetPoint" />
          </mxGeometry>
        </mxCell>
        <mxCell id="Kqf8Ho2SJKoaRGqRsECI-27" value="Se lleva a cabo" style="rhombus;whiteSpace=wrap;html=1;" vertex="1" parent="1">
          <mxGeometry x="340" y="-420" width="80" height="80" as="geometry" />
        </mxCell>
        <mxCell id="Kqf8Ho2SJKoaRGqRsECI-28" value="Aula" style="rounded=1;whiteSpace=wrap;html=1;" vertex="1" parent="1">
          <mxGeometry x="320" y="-300" width="120" height="60" as="geometry" />
        </mxCell>
        <mxCell id="Kqf8Ho2SJKoaRGqRsECI-29" value="" style="endArrow=none;html=1;rounded=0;entryX=0.5;entryY=1;entryDx=0;entryDy=0;" edge="1" parent="1" target="Kqf8Ho2SJKoaRGqRsECI-14">
          <mxGeometry width="50" height="50" relative="1" as="geometry">
            <mxPoint x="380" y="-420" as="sourcePoint" />
            <mxPoint x="430" y="-470" as="targetPoint" />
          </mxGeometry>
        </mxCell>
        <mxCell id="Kqf8Ho2SJKoaRGqRsECI-30" value="" style="endArrow=none;html=1;rounded=0;entryX=0.5;entryY=1;entryDx=0;entryDy=0;" edge="1" parent="1">
          <mxGeometry width="50" height="50" relative="1" as="geometry">
            <mxPoint x="379.5" y="-300" as="sourcePoint" />
            <mxPoint x="379.5" y="-340" as="targetPoint" />
          </mxGeometry>
        </mxCell>
        <mxCell id="Kqf8Ho2SJKoaRGqRsECI-31" value="&amp;nbsp;Participa&amp;nbsp;&lt;br&gt;en" style="rhombus;whiteSpace=wrap;html=1;" vertex="1" parent="1">
          <mxGeometry x="-460" y="-940" width="80" height="80" as="geometry" />
        </mxCell>
        <mxCell id="Kqf8Ho2SJKoaRGqRsECI-32" value="&amp;nbsp;Participa&amp;nbsp;&lt;br&gt;en" style="rhombus;whiteSpace=wrap;html=1;" vertex="1" parent="1">
          <mxGeometry x="60" y="-640" width="80" height="80" as="geometry" />
        </mxCell>
        <mxCell id="Kqf8Ho2SJKoaRGqRsECI-33" value="Tiene" style="rhombus;whiteSpace=wrap;html=1;" vertex="1" parent="1">
          <mxGeometry x="60" y="-420" width="80" height="80" as="geometry" />
        </mxCell>
        <mxCell id="Kqf8Ho2SJKoaRGqRsECI-34" value="Tiene" style="rhombus;whiteSpace=wrap;html=1;" vertex="1" parent="1">
          <mxGeometry x="-80" y="-530" width="80" height="80" as="geometry" />
        </mxCell>
        <mxCell id="Kqf8Ho2SJKoaRGqRsECI-35" value="Actividades extracurriculares" style="rounded=1;whiteSpace=wrap;html=1;" vertex="1" parent="1">
          <mxGeometry x="40" y="-740" width="120" height="60" as="geometry" />
        </mxCell>
        <mxCell id="Kqf8Ho2SJKoaRGqRsECI-36" value="Asistencias" style="rounded=1;whiteSpace=wrap;html=1;" vertex="1" parent="1">
          <mxGeometry x="-240" y="-520" width="120" height="60" as="geometry" />
        </mxCell>
        <mxCell id="Kqf8Ho2SJKoaRGqRsECI-37" value="Calificaciones" style="rounded=1;whiteSpace=wrap;html=1;" vertex="1" parent="1">
          <mxGeometry x="40" y="-310" width="120" height="60" as="geometry" />
        </mxCell>
        <mxCell id="Kqf8Ho2SJKoaRGqRsECI-39" value="" style="endArrow=none;html=1;rounded=0;exitX=0.5;exitY=0;exitDx=0;exitDy=0;" edge="1" parent="1" source="Kqf8Ho2SJKoaRGqRsECI-37">
          <mxGeometry width="50" height="50" relative="1" as="geometry">
            <mxPoint x="50" y="-290" as="sourcePoint" />
            <mxPoint x="100" y="-340" as="targetPoint" />
          </mxGeometry>
        </mxCell>
        <mxCell id="Kqf8Ho2SJKoaRGqRsECI-40" value="" style="endArrow=none;html=1;rounded=0;exitX=0.5;exitY=0;exitDx=0;exitDy=0;" edge="1" parent="1" source="Kqf8Ho2SJKoaRGqRsECI-33">
          <mxGeometry width="50" height="50" relative="1" as="geometry">
            <mxPoint x="99.83" y="-430" as="sourcePoint" />
            <mxPoint x="99.83" y="-460" as="targetPoint" />
          </mxGeometry>
        </mxCell>
        <mxCell id="Kqf8Ho2SJKoaRGqRsECI-41" value="" style="endArrow=none;html=1;rounded=0;" edge="1" parent="1" source="Kqf8Ho2SJKoaRGqRsECI-32">
          <mxGeometry width="50" height="50" relative="1" as="geometry">
            <mxPoint x="50" y="-630" as="sourcePoint" />
            <mxPoint x="100" y="-680" as="targetPoint" />
          </mxGeometry>
        </mxCell>
        <mxCell id="Kqf8Ho2SJKoaRGqRsECI-42" value="" style="endArrow=none;html=1;rounded=0;" edge="1" parent="1">
          <mxGeometry width="50" height="50" relative="1" as="geometry">
            <mxPoint x="99.83" y="-520" as="sourcePoint" />
            <mxPoint x="99.83" y="-560" as="targetPoint" />
          </mxGeometry>
        </mxCell>
        <mxCell id="Kqf8Ho2SJKoaRGqRsECI-43" value="" style="endArrow=none;html=1;rounded=0;" edge="1" parent="1" target="Kqf8Ho2SJKoaRGqRsECI-34">
          <mxGeometry width="50" height="50" relative="1" as="geometry">
            <mxPoint x="-120" y="-490" as="sourcePoint" />
            <mxPoint x="-70" y="-540" as="targetPoint" />
          </mxGeometry>
        </mxCell>
        <mxCell id="Kqf8Ho2SJKoaRGqRsECI-44" value="" style="endArrow=none;html=1;rounded=0;" edge="1" parent="1">
          <mxGeometry width="50" height="50" relative="1" as="geometry">
            <mxPoint y="-490.17" as="sourcePoint" />
            <mxPoint x="40" y="-490.17" as="targetPoint" />
          </mxGeometry>
        </mxCell>
        <mxCell id="Kqf8Ho2SJKoaRGqRsECI-45" value="" style="shape=table;startSize=0;container=1;collapsible=1;childLayout=tableLayout;fixedRows=1;rowLines=0;fontStyle=0;align=center;resizeLast=1;strokeColor=none;fillColor=none;collapsible=0;whiteSpace=wrap;html=1;" vertex="1" parent="1">
          <mxGeometry x="140" y="-520" width="180" height="30" as="geometry" />
        </mxCell>
        <mxCell id="Kqf8Ho2SJKoaRGqRsECI-46" value="" style="shape=tableRow;horizontal=0;startSize=0;swimlaneHead=0;swimlaneBody=0;fillColor=none;collapsible=0;dropTarget=0;points=[[0,0.5],[1,0.5]];portConstraint=eastwest;top=0;left=0;right=0;bottom=0;" vertex="1" parent="Kqf8Ho2SJKoaRGqRsECI-45">
          <mxGeometry width="180" height="30" as="geometry" />
        </mxCell>
        <mxCell id="Kqf8Ho2SJKoaRGqRsECI-47" value="" style="shape=partialRectangle;connectable=0;fillColor=none;top=0;left=0;bottom=0;right=0;editable=1;overflow=hidden;" vertex="1" parent="Kqf8Ho2SJKoaRGqRsECI-46">
          <mxGeometry width="30" height="30" as="geometry">
            <mxRectangle width="30" height="30" as="alternateBounds" />
          </mxGeometry>
        </mxCell>
        <mxCell id="Kqf8Ho2SJKoaRGqRsECI-48" value="1:1" style="shape=partialRectangle;connectable=0;fillColor=none;top=0;left=0;bottom=0;right=0;align=left;spacingLeft=6;overflow=hidden;" vertex="1" parent="Kqf8Ho2SJKoaRGqRsECI-46">
          <mxGeometry x="30" width="150" height="30" as="geometry">
            <mxRectangle width="150" height="30" as="alternateBounds" />
          </mxGeometry>
        </mxCell>
        <mxCell id="Kqf8Ho2SJKoaRGqRsECI-49" value="" style="shape=tableRow;horizontal=0;startSize=0;swimlaneHead=0;swimlaneBody=0;fillColor=none;collapsible=0;dropTarget=0;points=[[0,0.5],[1,0.5]];portConstraint=eastwest;top=0;left=0;right=0;bottom=0;" vertex="1" parent="1">
          <mxGeometry x="150" y="-510" width="180" height="30" as="geometry" />
        </mxCell>
        <mxCell id="Kqf8Ho2SJKoaRGqRsECI-50" value="" style="shape=partialRectangle;connectable=0;fillColor=none;top=0;left=0;bottom=0;right=0;editable=1;overflow=hidden;" vertex="1" parent="Kqf8Ho2SJKoaRGqRsECI-49">
          <mxGeometry width="30" height="30" as="geometry">
            <mxRectangle width="30" height="30" as="alternateBounds" />
          </mxGeometry>
        </mxCell>
        <mxCell id="Kqf8Ho2SJKoaRGqRsECI-51" value="1:n" style="shape=partialRectangle;connectable=0;fillColor=none;top=0;left=0;bottom=0;right=0;align=left;spacingLeft=6;overflow=hidden;" vertex="1" parent="Kqf8Ho2SJKoaRGqRsECI-49">
          <mxGeometry x="130" y="-10" width="150" height="30" as="geometry">
            <mxRectangle width="150" height="30" as="alternateBounds" />
          </mxGeometry>
        </mxCell>
        <mxCell id="Kqf8Ho2SJKoaRGqRsECI-52" value=" 1:n" style="shape=partialRectangle;connectable=0;fillColor=none;top=0;left=0;bottom=0;right=0;align=left;spacingLeft=6;overflow=hidden;" vertex="1" parent="1">
          <mxGeometry x="220" y="-560" width="150" height="30" as="geometry">
            <mxRectangle width="150" height="30" as="alternateBounds" />
          </mxGeometry>
        </mxCell>
        <mxCell id="Kqf8Ho2SJKoaRGqRsECI-53" value="" style="shape=table;startSize=0;container=1;collapsible=1;childLayout=tableLayout;fixedRows=1;rowLines=0;fontStyle=0;align=center;resizeLast=1;strokeColor=none;fillColor=none;collapsible=0;whiteSpace=wrap;html=1;" vertex="1" parent="1">
          <mxGeometry x="413" y="-520" width="67" height="30" as="geometry" />
        </mxCell>
        <mxCell id="Kqf8Ho2SJKoaRGqRsECI-54" value="" style="shape=tableRow;horizontal=0;startSize=0;swimlaneHead=0;swimlaneBody=0;fillColor=none;collapsible=0;dropTarget=0;points=[[0,0.5],[1,0.5]];portConstraint=eastwest;top=0;left=0;right=0;bottom=0;" vertex="1" parent="Kqf8Ho2SJKoaRGqRsECI-53">
          <mxGeometry width="67" height="30" as="geometry" />
        </mxCell>
        <mxCell id="Kqf8Ho2SJKoaRGqRsECI-55" value="" style="shape=partialRectangle;connectable=0;fillColor=none;top=0;left=0;bottom=0;right=0;editable=1;overflow=hidden;" vertex="1" parent="Kqf8Ho2SJKoaRGqRsECI-54">
          <mxGeometry width="30" height="30" as="geometry">
            <mxRectangle width="30" height="30" as="alternateBounds" />
          </mxGeometry>
        </mxCell>
        <mxCell id="Kqf8Ho2SJKoaRGqRsECI-56" value="1:1" style="shape=partialRectangle;connectable=0;fillColor=none;top=0;left=0;bottom=0;right=0;align=left;spacingLeft=6;overflow=hidden;" vertex="1" parent="Kqf8Ho2SJKoaRGqRsECI-54">
          <mxGeometry x="30" width="37" height="30" as="geometry">
            <mxRectangle width="37" height="30" as="alternateBounds" />
          </mxGeometry>
        </mxCell>
        <mxCell id="Kqf8Ho2SJKoaRGqRsECI-57" value=" 1:n" style="shape=partialRectangle;connectable=0;fillColor=none;top=0;left=0;bottom=0;right=0;align=left;spacingLeft=6;overflow=hidden;" vertex="1" parent="1">
          <mxGeometry x="500" y="-560" width="150" height="30" as="geometry">
            <mxRectangle width="150" height="30" as="alternateBounds" />
          </mxGeometry>
        </mxCell>
        <mxCell id="Kqf8Ho2SJKoaRGqRsECI-58" value="" style="shape=table;startSize=0;container=1;collapsible=1;childLayout=tableLayout;fixedRows=1;rowLines=0;fontStyle=0;align=center;resizeLast=1;strokeColor=none;fillColor=none;collapsible=0;whiteSpace=wrap;html=1;" vertex="1" parent="1">
          <mxGeometry x="530" y="-520" width="57" height="30" as="geometry" />
        </mxCell>
        <mxCell id="Kqf8Ho2SJKoaRGqRsECI-59" value="" style="shape=tableRow;horizontal=0;startSize=0;swimlaneHead=0;swimlaneBody=0;fillColor=none;collapsible=0;dropTarget=0;points=[[0,0.5],[1,0.5]];portConstraint=eastwest;top=0;left=0;right=0;bottom=0;" vertex="1" parent="Kqf8Ho2SJKoaRGqRsECI-58">
          <mxGeometry width="57" height="30" as="geometry" />
        </mxCell>
        <mxCell id="Kqf8Ho2SJKoaRGqRsECI-60" value="" style="shape=partialRectangle;connectable=0;fillColor=none;top=0;left=0;bottom=0;right=0;editable=1;overflow=hidden;" vertex="1" parent="Kqf8Ho2SJKoaRGqRsECI-59">
          <mxGeometry width="30" height="30" as="geometry">
            <mxRectangle width="30" height="30" as="alternateBounds" />
          </mxGeometry>
        </mxCell>
        <mxCell id="Kqf8Ho2SJKoaRGqRsECI-61" value="n:1" style="shape=partialRectangle;connectable=0;fillColor=none;top=0;left=0;bottom=0;right=0;align=left;spacingLeft=6;overflow=hidden;" vertex="1" parent="Kqf8Ho2SJKoaRGqRsECI-59">
          <mxGeometry x="30" width="27" height="30" as="geometry">
            <mxRectangle width="27" height="30" as="alternateBounds" />
          </mxGeometry>
        </mxCell>
        <mxCell id="Kqf8Ho2SJKoaRGqRsECI-69" value="" style="shape=table;startSize=0;container=1;collapsible=1;childLayout=tableLayout;fixedRows=1;rowLines=0;fontStyle=0;align=center;resizeLast=1;strokeColor=none;fillColor=none;collapsible=0;whiteSpace=wrap;html=1;" vertex="1" parent="1">
          <mxGeometry x="356" y="-450" width="57" height="30" as="geometry" />
        </mxCell>
        <mxCell id="Kqf8Ho2SJKoaRGqRsECI-70" value="" style="shape=tableRow;horizontal=0;startSize=0;swimlaneHead=0;swimlaneBody=0;fillColor=none;collapsible=0;dropTarget=0;points=[[0,0.5],[1,0.5]];portConstraint=eastwest;top=0;left=0;right=0;bottom=0;" vertex="1" parent="Kqf8Ho2SJKoaRGqRsECI-69">
          <mxGeometry width="57" height="30" as="geometry" />
        </mxCell>
        <mxCell id="Kqf8Ho2SJKoaRGqRsECI-71" value="" style="shape=partialRectangle;connectable=0;fillColor=none;top=0;left=0;bottom=0;right=0;editable=1;overflow=hidden;" vertex="1" parent="Kqf8Ho2SJKoaRGqRsECI-70">
          <mxGeometry width="30" height="30" as="geometry">
            <mxRectangle width="30" height="30" as="alternateBounds" />
          </mxGeometry>
        </mxCell>
        <mxCell id="Kqf8Ho2SJKoaRGqRsECI-72" value="n:1" style="shape=partialRectangle;connectable=0;fillColor=none;top=0;left=0;bottom=0;right=0;align=left;spacingLeft=6;overflow=hidden;" vertex="1" parent="Kqf8Ho2SJKoaRGqRsECI-70">
          <mxGeometry x="30" width="27" height="30" as="geometry">
            <mxRectangle width="27" height="30" as="alternateBounds" />
          </mxGeometry>
        </mxCell>
        <mxCell id="Kqf8Ho2SJKoaRGqRsECI-73" value="" style="shape=table;startSize=0;container=1;collapsible=1;childLayout=tableLayout;fixedRows=1;rowLines=0;fontStyle=0;align=center;resizeLast=1;strokeColor=none;fillColor=none;collapsible=0;whiteSpace=wrap;html=1;" vertex="1" parent="1">
          <mxGeometry x="360" y="-340" width="67" height="30" as="geometry" />
        </mxCell>
        <mxCell id="Kqf8Ho2SJKoaRGqRsECI-74" value="" style="shape=tableRow;horizontal=0;startSize=0;swimlaneHead=0;swimlaneBody=0;fillColor=none;collapsible=0;dropTarget=0;points=[[0,0.5],[1,0.5]];portConstraint=eastwest;top=0;left=0;right=0;bottom=0;" vertex="1" parent="Kqf8Ho2SJKoaRGqRsECI-73">
          <mxGeometry width="67" height="30" as="geometry" />
        </mxCell>
        <mxCell id="Kqf8Ho2SJKoaRGqRsECI-75" value="" style="shape=partialRectangle;connectable=0;fillColor=none;top=0;left=0;bottom=0;right=0;editable=1;overflow=hidden;" vertex="1" parent="Kqf8Ho2SJKoaRGqRsECI-74">
          <mxGeometry width="30" height="30" as="geometry">
            <mxRectangle width="30" height="30" as="alternateBounds" />
          </mxGeometry>
        </mxCell>
        <mxCell id="Kqf8Ho2SJKoaRGqRsECI-76" value="1:1" style="shape=partialRectangle;connectable=0;fillColor=none;top=0;left=0;bottom=0;right=0;align=left;spacingLeft=6;overflow=hidden;" vertex="1" parent="Kqf8Ho2SJKoaRGqRsECI-74">
          <mxGeometry x="30" width="37" height="30" as="geometry">
            <mxRectangle width="37" height="30" as="alternateBounds" />
          </mxGeometry>
        </mxCell>
        <mxCell id="Kqf8Ho2SJKoaRGqRsECI-77" value="" style="shape=table;startSize=0;container=1;collapsible=1;childLayout=tableLayout;fixedRows=1;rowLines=0;fontStyle=0;align=center;resizeLast=1;strokeColor=none;fillColor=none;collapsible=0;whiteSpace=wrap;html=1;" vertex="1" parent="1">
          <mxGeometry x="399.5" y="-395" width="57" height="30" as="geometry" />
        </mxCell>
        <mxCell id="Kqf8Ho2SJKoaRGqRsECI-78" value="" style="shape=tableRow;horizontal=0;startSize=0;swimlaneHead=0;swimlaneBody=0;fillColor=none;collapsible=0;dropTarget=0;points=[[0,0.5],[1,0.5]];portConstraint=eastwest;top=0;left=0;right=0;bottom=0;" vertex="1" parent="Kqf8Ho2SJKoaRGqRsECI-77">
          <mxGeometry width="57" height="30" as="geometry" />
        </mxCell>
        <mxCell id="Kqf8Ho2SJKoaRGqRsECI-79" value="" style="shape=partialRectangle;connectable=0;fillColor=none;top=0;left=0;bottom=0;right=0;editable=1;overflow=hidden;" vertex="1" parent="Kqf8Ho2SJKoaRGqRsECI-78">
          <mxGeometry width="30" height="30" as="geometry">
            <mxRectangle width="30" height="30" as="alternateBounds" />
          </mxGeometry>
        </mxCell>
        <mxCell id="Kqf8Ho2SJKoaRGqRsECI-80" value="n:1" style="shape=partialRectangle;connectable=0;fillColor=none;top=0;left=0;bottom=0;right=0;align=left;spacingLeft=6;overflow=hidden;" vertex="1" parent="Kqf8Ho2SJKoaRGqRsECI-78">
          <mxGeometry x="30" width="27" height="30" as="geometry">
            <mxRectangle width="27" height="30" as="alternateBounds" />
          </mxGeometry>
        </mxCell>
        <mxCell id="Kqf8Ho2SJKoaRGqRsECI-81" value="" style="shape=table;startSize=0;container=1;collapsible=1;childLayout=tableLayout;fixedRows=1;rowLines=0;fontStyle=0;align=center;resizeLast=1;strokeColor=none;fillColor=none;collapsible=0;whiteSpace=wrap;html=1;" vertex="1" parent="1">
          <mxGeometry x="353" y="-670" width="67" height="30" as="geometry" />
        </mxCell>
        <mxCell id="Kqf8Ho2SJKoaRGqRsECI-82" value="" style="shape=tableRow;horizontal=0;startSize=0;swimlaneHead=0;swimlaneBody=0;fillColor=none;collapsible=0;dropTarget=0;points=[[0,0.5],[1,0.5]];portConstraint=eastwest;top=0;left=0;right=0;bottom=0;" vertex="1" parent="Kqf8Ho2SJKoaRGqRsECI-81">
          <mxGeometry width="67" height="30" as="geometry" />
        </mxCell>
        <mxCell id="Kqf8Ho2SJKoaRGqRsECI-83" value="" style="shape=partialRectangle;connectable=0;fillColor=none;top=0;left=0;bottom=0;right=0;editable=1;overflow=hidden;" vertex="1" parent="Kqf8Ho2SJKoaRGqRsECI-82">
          <mxGeometry width="30" height="30" as="geometry">
            <mxRectangle width="30" height="30" as="alternateBounds" />
          </mxGeometry>
        </mxCell>
        <mxCell id="Kqf8Ho2SJKoaRGqRsECI-84" value="1:1" style="shape=partialRectangle;connectable=0;fillColor=none;top=0;left=0;bottom=0;right=0;align=left;spacingLeft=6;overflow=hidden;" vertex="1" parent="Kqf8Ho2SJKoaRGqRsECI-82">
          <mxGeometry x="30" width="37" height="30" as="geometry">
            <mxRectangle width="37" height="30" as="alternateBounds" />
          </mxGeometry>
        </mxCell>
        <mxCell id="Kqf8Ho2SJKoaRGqRsECI-85" value="1:n" style="shape=partialRectangle;connectable=0;fillColor=none;top=0;left=0;bottom=0;right=0;align=left;spacingLeft=6;overflow=hidden;" vertex="1" parent="1">
          <mxGeometry x="390" y="-560" width="150" height="30" as="geometry">
            <mxRectangle width="150" height="30" as="alternateBounds" />
          </mxGeometry>
        </mxCell>
        <mxCell id="Kqf8Ho2SJKoaRGqRsECI-86" value="1:n" style="shape=partialRectangle;connectable=0;fillColor=none;top=0;left=0;bottom=0;right=0;align=left;spacingLeft=6;overflow=hidden;" vertex="1" parent="1">
          <mxGeometry x="427" y="-620" width="150" height="30" as="geometry">
            <mxRectangle width="150" height="30" as="alternateBounds" />
          </mxGeometry>
        </mxCell>
        <mxCell id="Kqf8Ho2SJKoaRGqRsECI-87" value="1:n" style="shape=partialRectangle;connectable=0;fillColor=none;top=0;left=0;bottom=0;right=0;align=left;spacingLeft=6;overflow=hidden;" vertex="1" parent="1">
          <mxGeometry x="110" y="-340" width="150" height="30" as="geometry">
            <mxRectangle width="150" height="30" as="alternateBounds" />
          </mxGeometry>
        </mxCell>
        <mxCell id="Kqf8Ho2SJKoaRGqRsECI-88" value="" style="shape=table;startSize=0;container=1;collapsible=1;childLayout=tableLayout;fixedRows=1;rowLines=0;fontStyle=0;align=center;resizeLast=1;strokeColor=none;fillColor=none;collapsible=0;whiteSpace=wrap;html=1;" vertex="1" parent="1">
          <mxGeometry x="75" y="-450" width="180" height="30" as="geometry" />
        </mxCell>
        <mxCell id="Kqf8Ho2SJKoaRGqRsECI-89" value="" style="shape=tableRow;horizontal=0;startSize=0;swimlaneHead=0;swimlaneBody=0;fillColor=none;collapsible=0;dropTarget=0;points=[[0,0.5],[1,0.5]];portConstraint=eastwest;top=0;left=0;right=0;bottom=0;" vertex="1" parent="Kqf8Ho2SJKoaRGqRsECI-88">
          <mxGeometry width="180" height="30" as="geometry" />
        </mxCell>
        <mxCell id="Kqf8Ho2SJKoaRGqRsECI-90" value="" style="shape=partialRectangle;connectable=0;fillColor=none;top=0;left=0;bottom=0;right=0;editable=1;overflow=hidden;" vertex="1" parent="Kqf8Ho2SJKoaRGqRsECI-89">
          <mxGeometry width="30" height="30" as="geometry">
            <mxRectangle width="30" height="30" as="alternateBounds" />
          </mxGeometry>
        </mxCell>
        <mxCell id="Kqf8Ho2SJKoaRGqRsECI-91" value="1:1" style="shape=partialRectangle;connectable=0;fillColor=none;top=0;left=0;bottom=0;right=0;align=left;spacingLeft=6;overflow=hidden;" vertex="1" parent="Kqf8Ho2SJKoaRGqRsECI-89">
          <mxGeometry x="30" width="150" height="30" as="geometry">
            <mxRectangle width="150" height="30" as="alternateBounds" />
          </mxGeometry>
        </mxCell>
        <mxCell id="Kqf8Ho2SJKoaRGqRsECI-92" value=" 1:n" style="shape=partialRectangle;connectable=0;fillColor=none;top=0;left=0;bottom=0;right=0;align=left;spacingLeft=6;overflow=hidden;" vertex="1" parent="1">
          <mxGeometry x="140" y="-395" width="150" height="30" as="geometry">
            <mxRectangle width="150" height="30" as="alternateBounds" />
          </mxGeometry>
        </mxCell>
        <mxCell id="Kqf8Ho2SJKoaRGqRsECI-93" value="ID" style="ellipse;whiteSpace=wrap;html=1;" vertex="1" parent="1">
          <mxGeometry x="20" y="-210" width="60" height="40" as="geometry" />
        </mxCell>
        <mxCell id="Kqf8Ho2SJKoaRGqRsECI-94" value="Nota" style="ellipse;whiteSpace=wrap;html=1;" vertex="1" parent="1">
          <mxGeometry x="120" y="-210" width="60" height="40" as="geometry" />
        </mxCell>
        <mxCell id="Kqf8Ho2SJKoaRGqRsECI-95" value="" style="endArrow=none;html=1;rounded=0;entryX=0.5;entryY=1;entryDx=0;entryDy=0;" edge="1" parent="1" target="Kqf8Ho2SJKoaRGqRsECI-37">
          <mxGeometry width="50" height="50" relative="1" as="geometry">
            <mxPoint x="50" y="-210" as="sourcePoint" />
            <mxPoint x="100" y="-260" as="targetPoint" />
          </mxGeometry>
        </mxCell>
        <mxCell id="Kqf8Ho2SJKoaRGqRsECI-96" value="" style="endArrow=none;html=1;rounded=0;entryX=0.5;entryY=1;entryDx=0;entryDy=0;" edge="1" parent="1" target="Kqf8Ho2SJKoaRGqRsECI-37">
          <mxGeometry width="50" height="50" relative="1" as="geometry">
            <mxPoint x="150" y="-210" as="sourcePoint" />
            <mxPoint x="200" y="-260" as="targetPoint" />
          </mxGeometry>
        </mxCell>
        <mxCell id="Kqf8Ho2SJKoaRGqRsECI-97" value="ID" style="ellipse;whiteSpace=wrap;html=1;" vertex="1" parent="1">
          <mxGeometry x="-340" y="-570" width="60" height="50" as="geometry" />
        </mxCell>
        <mxCell id="Kqf8Ho2SJKoaRGqRsECI-98" value="Fecha" style="ellipse;whiteSpace=wrap;html=1;" vertex="1" parent="1">
          <mxGeometry x="-380" y="-515" width="60" height="50" as="geometry" />
        </mxCell>
        <mxCell id="Kqf8Ho2SJKoaRGqRsECI-99" value="Presente/&lt;br&gt;Ausente" style="ellipse;whiteSpace=wrap;html=1;" vertex="1" parent="1">
          <mxGeometry x="-340" y="-460" width="60" height="50" as="geometry" />
        </mxCell>
        <mxCell id="Kqf8Ho2SJKoaRGqRsECI-100" value="" style="endArrow=none;html=1;rounded=0;exitX=1;exitY=0.5;exitDx=0;exitDy=0;" edge="1" parent="1" source="Kqf8Ho2SJKoaRGqRsECI-99">
          <mxGeometry width="50" height="50" relative="1" as="geometry">
            <mxPoint x="-290" y="-440" as="sourcePoint" />
            <mxPoint x="-240" y="-490" as="targetPoint" />
          </mxGeometry>
        </mxCell>
        <mxCell id="Kqf8Ho2SJKoaRGqRsECI-101" value="" style="endArrow=none;html=1;rounded=0;exitX=1;exitY=0.5;exitDx=0;exitDy=0;" edge="1" parent="1" source="Kqf8Ho2SJKoaRGqRsECI-98">
          <mxGeometry width="50" height="50" relative="1" as="geometry">
            <mxPoint x="-290" y="-440" as="sourcePoint" />
            <mxPoint x="-240" y="-490" as="targetPoint" />
          </mxGeometry>
        </mxCell>
        <mxCell id="Kqf8Ho2SJKoaRGqRsECI-102" value="" style="endArrow=none;html=1;rounded=0;exitX=0.962;exitY=0.623;exitDx=0;exitDy=0;exitPerimeter=0;" edge="1" parent="1" source="Kqf8Ho2SJKoaRGqRsECI-97">
          <mxGeometry width="50" height="50" relative="1" as="geometry">
            <mxPoint x="-290" y="-440" as="sourcePoint" />
            <mxPoint x="-240" y="-490" as="targetPoint" />
          </mxGeometry>
        </mxCell>
        <mxCell id="Kqf8Ho2SJKoaRGqRsECI-103" value="" style="shape=table;startSize=0;container=1;collapsible=1;childLayout=tableLayout;fixedRows=1;rowLines=0;fontStyle=0;align=center;resizeLast=1;strokeColor=none;fillColor=none;collapsible=0;whiteSpace=wrap;html=1;" vertex="1" parent="1">
          <mxGeometry x="-30" y="-520" width="180" height="30" as="geometry" />
        </mxCell>
        <mxCell id="Kqf8Ho2SJKoaRGqRsECI-104" value="" style="shape=tableRow;horizontal=0;startSize=0;swimlaneHead=0;swimlaneBody=0;fillColor=none;collapsible=0;dropTarget=0;points=[[0,0.5],[1,0.5]];portConstraint=eastwest;top=0;left=0;right=0;bottom=0;" vertex="1" parent="Kqf8Ho2SJKoaRGqRsECI-103">
          <mxGeometry width="180" height="30" as="geometry" />
        </mxCell>
        <mxCell id="Kqf8Ho2SJKoaRGqRsECI-105" value="" style="shape=partialRectangle;connectable=0;fillColor=none;top=0;left=0;bottom=0;right=0;editable=1;overflow=hidden;" vertex="1" parent="Kqf8Ho2SJKoaRGqRsECI-104">
          <mxGeometry width="30" height="30" as="geometry">
            <mxRectangle width="30" height="30" as="alternateBounds" />
          </mxGeometry>
        </mxCell>
        <mxCell id="Kqf8Ho2SJKoaRGqRsECI-106" value="1:1" style="shape=partialRectangle;connectable=0;fillColor=none;top=0;left=0;bottom=0;right=0;align=left;spacingLeft=6;overflow=hidden;" vertex="1" parent="Kqf8Ho2SJKoaRGqRsECI-104">
          <mxGeometry x="30" width="150" height="30" as="geometry">
            <mxRectangle width="150" height="30" as="alternateBounds" />
          </mxGeometry>
        </mxCell>
        <mxCell id="Kqf8Ho2SJKoaRGqRsECI-107" value="" style="shape=table;startSize=0;container=1;collapsible=1;childLayout=tableLayout;fixedRows=1;rowLines=0;fontStyle=0;align=center;resizeLast=1;strokeColor=none;fillColor=none;collapsible=0;whiteSpace=wrap;html=1;" vertex="1" parent="1">
          <mxGeometry x="-140" y="-520" width="57" height="30" as="geometry" />
        </mxCell>
        <mxCell id="Kqf8Ho2SJKoaRGqRsECI-108" value="" style="shape=tableRow;horizontal=0;startSize=0;swimlaneHead=0;swimlaneBody=0;fillColor=none;collapsible=0;dropTarget=0;points=[[0,0.5],[1,0.5]];portConstraint=eastwest;top=0;left=0;right=0;bottom=0;" vertex="1" parent="Kqf8Ho2SJKoaRGqRsECI-107">
          <mxGeometry width="57" height="30" as="geometry" />
        </mxCell>
        <mxCell id="Kqf8Ho2SJKoaRGqRsECI-109" value="" style="shape=partialRectangle;connectable=0;fillColor=none;top=0;left=0;bottom=0;right=0;editable=1;overflow=hidden;" vertex="1" parent="Kqf8Ho2SJKoaRGqRsECI-108">
          <mxGeometry width="30" height="30" as="geometry">
            <mxRectangle width="30" height="30" as="alternateBounds" />
          </mxGeometry>
        </mxCell>
        <mxCell id="Kqf8Ho2SJKoaRGqRsECI-110" value="n:1" style="shape=partialRectangle;connectable=0;fillColor=none;top=0;left=0;bottom=0;right=0;align=left;spacingLeft=6;overflow=hidden;" vertex="1" parent="Kqf8Ho2SJKoaRGqRsECI-108">
          <mxGeometry x="30" width="27" height="30" as="geometry">
            <mxRectangle width="27" height="30" as="alternateBounds" />
          </mxGeometry>
        </mxCell>
        <mxCell id="Kqf8Ho2SJKoaRGqRsECI-111" value="" style="shape=table;startSize=0;container=1;collapsible=1;childLayout=tableLayout;fixedRows=1;rowLines=0;fontStyle=0;align=center;resizeLast=1;strokeColor=none;fillColor=none;collapsible=0;whiteSpace=wrap;html=1;" vertex="1" parent="1">
          <mxGeometry x="-87" y="-560" width="57" height="30" as="geometry" />
        </mxCell>
        <mxCell id="Kqf8Ho2SJKoaRGqRsECI-112" value="" style="shape=tableRow;horizontal=0;startSize=0;swimlaneHead=0;swimlaneBody=0;fillColor=none;collapsible=0;dropTarget=0;points=[[0,0.5],[1,0.5]];portConstraint=eastwest;top=0;left=0;right=0;bottom=0;" vertex="1" parent="Kqf8Ho2SJKoaRGqRsECI-111">
          <mxGeometry width="57" height="30" as="geometry" />
        </mxCell>
        <mxCell id="Kqf8Ho2SJKoaRGqRsECI-113" value="" style="shape=partialRectangle;connectable=0;fillColor=none;top=0;left=0;bottom=0;right=0;editable=1;overflow=hidden;" vertex="1" parent="Kqf8Ho2SJKoaRGqRsECI-112">
          <mxGeometry width="30" height="30" as="geometry">
            <mxRectangle width="30" height="30" as="alternateBounds" />
          </mxGeometry>
        </mxCell>
        <mxCell id="Kqf8Ho2SJKoaRGqRsECI-114" value="n:1" style="shape=partialRectangle;connectable=0;fillColor=none;top=0;left=0;bottom=0;right=0;align=left;spacingLeft=6;overflow=hidden;" vertex="1" parent="Kqf8Ho2SJKoaRGqRsECI-112">
          <mxGeometry x="30" width="27" height="30" as="geometry">
            <mxRectangle width="27" height="30" as="alternateBounds" />
          </mxGeometry>
        </mxCell>
        <mxCell id="Kqf8Ho2SJKoaRGqRsECI-115" value=" 1:n" style="shape=partialRectangle;connectable=0;fillColor=none;top=0;left=0;bottom=0;right=0;align=left;spacingLeft=6;overflow=hidden;" vertex="1" parent="1">
          <mxGeometry x="105" y="-560" width="150" height="30" as="geometry">
            <mxRectangle width="150" height="30" as="alternateBounds" />
          </mxGeometry>
        </mxCell>
        <mxCell id="Kqf8Ho2SJKoaRGqRsECI-116" value=" 1:n" style="shape=partialRectangle;connectable=0;fillColor=none;top=0;left=0;bottom=0;right=0;align=left;spacingLeft=6;overflow=hidden;" vertex="1" parent="1">
          <mxGeometry x="105" y="-670" width="150" height="30" as="geometry">
            <mxRectangle width="150" height="30" as="alternateBounds" />
          </mxGeometry>
        </mxCell>
        <mxCell id="Kqf8Ho2SJKoaRGqRsECI-117" value="n:n" style="shape=partialRectangle;connectable=0;fillColor=none;top=0;left=0;bottom=0;right=0;align=left;spacingLeft=6;overflow=hidden;" vertex="1" parent="1">
          <mxGeometry x="140" y="-615" width="150" height="30" as="geometry">
            <mxRectangle width="150" height="30" as="alternateBounds" />
          </mxGeometry>
        </mxCell>
        <mxCell id="Kqf8Ho2SJKoaRGqRsECI-118" value="ID" style="ellipse;whiteSpace=wrap;html=1;" vertex="1" parent="1">
          <mxGeometry x="-60" y="-680" width="60" height="50" as="geometry" />
        </mxCell>
        <mxCell id="Kqf8Ho2SJKoaRGqRsECI-119" value="Horario" style="ellipse;whiteSpace=wrap;html=1;" vertex="1" parent="1">
          <mxGeometry x="-110" y="-720" width="60" height="50" as="geometry" />
        </mxCell>
        <mxCell id="Kqf8Ho2SJKoaRGqRsECI-120" value="&lt;font style=&quot;font-size: 10px;&quot;&gt;Descripción&lt;/font&gt;" style="ellipse;whiteSpace=wrap;html=1;" vertex="1" parent="1">
          <mxGeometry x="-60" y="-820" width="60" height="50" as="geometry" />
        </mxCell>
        <mxCell id="Kqf8Ho2SJKoaRGqRsECI-121" value="&lt;font style=&quot;font-size: 10px;&quot;&gt;Nombre&lt;/font&gt;" style="ellipse;whiteSpace=wrap;html=1;" vertex="1" parent="1">
          <mxGeometry x="-110" y="-780" width="60" height="50" as="geometry" />
        </mxCell>
        <mxCell id="Kqf8Ho2SJKoaRGqRsECI-122" value="" style="endArrow=none;html=1;rounded=0;exitX=1;exitY=0;exitDx=0;exitDy=0;" edge="1" parent="1" source="Kqf8Ho2SJKoaRGqRsECI-118">
          <mxGeometry width="50" height="50" relative="1" as="geometry">
            <mxPoint x="-10" y="-660" as="sourcePoint" />
            <mxPoint x="40" y="-710" as="targetPoint" />
          </mxGeometry>
        </mxCell>
        <mxCell id="Kqf8Ho2SJKoaRGqRsECI-123" value="" style="endArrow=none;html=1;rounded=0;exitX=1;exitY=1;exitDx=0;exitDy=0;" edge="1" parent="1" source="Kqf8Ho2SJKoaRGqRsECI-120">
          <mxGeometry width="50" height="50" relative="1" as="geometry">
            <mxPoint x="-10" y="-660" as="sourcePoint" />
            <mxPoint x="40" y="-710" as="targetPoint" />
          </mxGeometry>
        </mxCell>
        <mxCell id="Kqf8Ho2SJKoaRGqRsECI-124" value="" style="endArrow=none;html=1;rounded=0;exitX=1.019;exitY=0.611;exitDx=0;exitDy=0;exitPerimeter=0;" edge="1" parent="1" source="Kqf8Ho2SJKoaRGqRsECI-121">
          <mxGeometry width="50" height="50" relative="1" as="geometry">
            <mxPoint x="-10" y="-660" as="sourcePoint" />
            <mxPoint x="40" y="-710" as="targetPoint" />
          </mxGeometry>
        </mxCell>
        <mxCell id="Kqf8Ho2SJKoaRGqRsECI-125" value="" style="endArrow=none;html=1;rounded=0;exitX=1;exitY=0.5;exitDx=0;exitDy=0;" edge="1" parent="1" source="Kqf8Ho2SJKoaRGqRsECI-119">
          <mxGeometry width="50" height="50" relative="1" as="geometry">
            <mxPoint x="-10" y="-660" as="sourcePoint" />
            <mxPoint x="40" y="-710" as="targetPoint" />
          </mxGeometry>
        </mxCell>
      </root>
    </mxGraphModel>
  </diagram>
</mxfile>
